/* XPM */
static char * coll_xpm[] = {
"64 64 8 1",
" 	c #222034",
".	c #847E87",
"+	c #595652",
"@	c #323C39",
"#	c #FB6B1D",
"$	c #F9C22B",
"%	c #E83B3B",
"&	c #AE2334",
"                                                                ",
"                                                                ",
"                                                                ",
"                                                                ",
"    ........++++++++++++++++@@@@    ++++++++++++....    ........",
"    ........++++++++++++++++@@@@    ++++++++++++....    ........",
"    ........++++++++++++++++@@@@    ++++++++++++....    ........",
"    ........++++++++++++++++@@@@    ++++++++++++....    ........",
"    ++++++++++++    @@@@    @@@@@@@@        ++++    ++++++++++++",
"    ++++++++++++    @@@@    @@@@@@@@        ++++    ++++++++++++",
"    ++++++++++++    @@@@    @@@@@@@@        ++++    ++++++++++++",
"    ++++++++++++    @@@@    @@@@@@@@        ++++    ++++++++++++",
"    ++++        ........@@@@++++............@@@@@@@@    ++++++++",
"    ++++        ........@@@@++++............@@@@@@@@    ++++++++",
"    ++++        ........@@@@++++............@@@@@@@@    ++++++++",
"    ++++        ........@@@@++++............@@@@@@@@    ++++++++",
"        ........++++    @@@@################........@@@@    ++++",
"        ........++++    @@@@################........@@@@    ++++",
"        ........++++    @@@@################........@@@@    ++++",
"        ........++++    @@@@################........@@@@    ++++",
"    ....++++++++++++    ####$$$$$$$$####$$$$%%%%........        ",
"    ....++++++++++++    ####$$$$$$$$####$$$$%%%%........        ",
"    ....++++++++++++    ####$$$$$$$$####$$$$%%%%........        ",
"    ....++++++++++++    ####$$$$$$$$####$$$$%%%%........        ",
"        ++++++++    ####$$$$$$$$########$$$$%%%%++++....@@@@@@@@",
"        ++++++++    ####$$$$$$$$########$$$$%%%%++++....@@@@@@@@",
"        ++++++++    ####$$$$$$$$########$$$$%%%%++++....@@@@@@@@",
"        ++++++++    ####$$$$$$$$########$$$$%%%%++++....@@@@@@@@",
"    @@@@        ####$$$$$$$$########$$$$####%%%%    @@@@@@@@....",
"    @@@@        ####$$$$$$$$########$$$$####%%%%    @@@@@@@@....",
"    @@@@        ####$$$$$$$$########$$$$####%%%%    @@@@@@@@....",
"    @@@@        ####$$$$$$$$########$$$$####%%%%    @@@@@@@@....",
"    ........@@@@$$$$$$$$########$$$$####&&&&&&&&    ............",
"    ........@@@@$$$$$$$$########$$$$####&&&&&&&&    ............",
"    ........@@@@$$$$$$$$########$$$$####&&&&&&&&    ............",
"    ........@@@@$$$$$$$$########$$$$####&&&&&&&&    ............",
"    ++++....    $$$$################&&&&&&&&&&&&@@@@....++++++++",
"    ++++....    $$$$################&&&&&&&&&&&&@@@@....++++++++",
"    ++++....    $$$$################&&&&&&&&&&&&@@@@....++++++++",
"    ++++....    $$$$################&&&&&&&&&&&&@@@@....++++++++",
"    ++++    @@@@####$$$$$$$$####%%%%%%%%&&&&&&&&@@@@    ++++++++",
"    ++++    @@@@####$$$$$$$$####%%%%%%%%&&&&&&&&@@@@    ++++++++",
"    ++++    @@@@####$$$$$$$$####%%%%%%%%&&&&&&&&@@@@    ++++++++",
"    ++++    @@@@####$$$$$$$$####%%%%%%%%&&&&&&&&@@@@    ++++++++",
"        ............&&&&&&&&&&&&%%%%%%%%%%%%&&&&....@@@@++++++++",
"        ............&&&&&&&&&&&&%%%%%%%%%%%%&&&&....@@@@++++++++",
"        ............&&&&&&&&&&&&%%%%%%%%%%%%&&&&....@@@@++++++++",
"        ............&&&&&&&&&&&&%%%%%%%%%%%%&&&&....@@@@++++++++",
"    ....++++++++++++....@@@@........++++++++++++++++    @@@@    ",
"    ....++++++++++++....@@@@........++++++++++++++++    @@@@    ",
"    ....++++++++++++....@@@@........++++++++++++++++    @@@@    ",
"    ....++++++++++++....@@@@........++++++++++++++++    @@@@    ",
"    ++++++++++++++++@@@@@@@@....++++++++++++++++++++    @@@@@@@@",
"    ++++++++++++++++@@@@@@@@....++++++++++++++++++++    @@@@@@@@",
"    ++++++++++++++++@@@@@@@@....++++++++++++++++++++    @@@@@@@@",
"    ++++++++++++++++@@@@@@@@....++++++++++++++++++++    @@@@@@@@",
"    ++++++++++++++++@@@@    @@@@++++++++++++++++        ........",
"    ++++++++++++++++@@@@    @@@@++++++++++++++++        ........",
"    ++++++++++++++++@@@@    @@@@++++++++++++++++        ........",
"    ++++++++++++++++@@@@    @@@@++++++++++++++++        ........",
"        @@@@                    @@@@++++++++++++    ++++++++....",
"        @@@@                    @@@@++++++++++++    ++++++++....",
"        @@@@                    @@@@++++++++++++    ++++++++....",
"        @@@@                    @@@@++++++++++++    ++++++++...."};
