/* XPM */
static char * exit_xpm[] = {
"64 64 65 1",
" 	c #060608",
".	c #141013",
"+	c #3B1725",
"@	c #73172D",
"#	c #B4202A",
"$	c #DF3E23",
"%	c #FA6A0A",
"&	c #F9A31B",
"*	c #FFD541",
"=	c #FFFC40",
"-	c #D6F264",
";	c #9CDB43",
">	c #59C135",
",	c #14A02E",
"'	c #1A7A3E",
")	c #24523B",
"!	c #122020",
"~	c #143464",
"{	c #285CC4",
"]	c #249FDE",
"^	c #20D6C7",
"/	c #A6FCDB",
"(	c #FFFFFF",
"_	c #FEF3C0",
":	c #FAD6B8",
"<	c #F5A097",
"[	c #E86A73",
"}	c #BC4A9B",
"|	c #793A80",
"1	c #403353",
"2	c #242234",
"3	c #221C1A",
"4	c #322B28",
"5	c #71413B",
"6	c #BB7547",
"7	c #DBA463",
"8	c #F4D29C",
"9	c #DAE0EA",
"0	c #B3B9D1",
"a	c #8B93AF",
"b	c #6D758D",
"c	c #4A5462",
"d	c #333941",
"e	c #422433",
"f	c #5B3138",
"g	c #8E5252",
"h	c #BA756A",
"i	c #E9B5A3",
"j	c #E3E6FF",
"k	c #B9BFFB",
"l	c #849BE4",
"m	c #588DBE",
"n	c #477D85",
"o	c #23674E",
"p	c #328464",
"q	c #5DAF8D",
"r	c #92DCBA",
"s	c #CDF7E2",
"t	c #E4D2AA",
"u	c #C7B08B",
"v	c #A08662",
"w	c #796755",
"x	c #5A4E44",
"y	c #423934",
"z	c #000000",
"||||2222||||||||1111||||||||1111||||||||1111||||||||11112222||||",
"||||2222||||||||1111||||||||1111||||||||1111||||||||11112222||||",
"||||2222||||||||1111||||||||1111||||||||1111||||||||11112222||||",
"||||2222||||||||1111||||||||1111||||||||1111||||||||11112222||||",
"||||2222........||||........||||........||||........||||22221111",
"||||2222........||||........||||........||||........||||22221111",
"||||2222........||||........||||........||||........||||22221111",
"||||2222........||||........||||........||||........||||22221111",
"||||2222........||||........||||........||||........||||22221111",
"||||2222........||||........||||........||||........||||22221111",
"||||2222........||||........||||........||||........||||22221111",
"||||2222........||||........||||........||||........||||22221111",
"22222222........||||........||||........||||........||||22222222",
"22222222........||||........||||........||||........||||22222222",
"22222222........||||........||||........||||........||||22222222",
"22222222........||||........||||........||||........||||22222222",
"||||2222........||||........||||........||||........||||2222||||",
"||||2222........||||........||||........||||........||||2222||||",
"||||2222........||||........||||........||||........||||2222||||",
"||||2222........||||........||||........||||........||||2222||||",
"||||2222||||||||1111||||||||1111||||||||1111||||||||111122221111",
"||||2222||||||||1111||||||||1111||||||||1111||||||||111122221111",
"||||2222||||||||1111||||||||1111||||||||1111||||||||111122221111",
"||||2222||||||||1111||||||||1111||||||||1111||||||||111122221111",
"||||2222........||||........||||........||||........||||22221111",
"||||2222........||||........||||........||||........||||22221111",
"||||2222........||||........||||........||||........||||22221111",
"||||2222........||||........||||........||||........||||22221111",
"22222222........||||........||||........||||........||||22222222",
"22222222........||||........||||........||||........||||22222222",
"22222222........||||........||||........||||........||||22222222",
"22222222........||||........||||........||||........||||22222222",
"||||2222........||||........||||........||||........||||2222||||",
"||||2222........||||........||||........||||........||||2222||||",
"||||2222........||||........||||........||||........||||2222||||",
"||||2222........||||........||||........||||........||||2222||||",
"||||2222........||||........||||........||||........||||22221111",
"||||2222........||||........||||........||||........||||22221111",
"||||2222........||||........||||........||||........||||22221111",
"||||2222........||||........||||........||||........||||22221111",
"||||2222||||||||1111||||||||1111||||||||1111||||||||111122221111",
"||||2222||||||||1111||||||||1111||||||||1111||||||||111122221111",
"||||2222||||||||1111||||||||1111||||||||1111||||||||111122221111",
"||||2222||||||||1111||||||||1111||||||||1111||||||||111122221111",
"22222222........||||........||||........||||........||||22222222",
"22222222........||||........||||........||||........||||22222222",
"22222222........||||........||||........||||........||||22222222",
"22222222........||||........||||........||||........||||22222222",
"||||22222222....||||....2222||||2222....||||....2222||||2222||||",
"||||22222222....||||....2222||||2222....||||....2222||||2222||||",
"||||22222222....||||....2222||||2222....||||....2222||||2222||||",
"||||22222222....||||....2222||||2222....||||....2222||||2222||||",
"||||2222....2222||||2222....||||....2222||||2222....||||22221111",
"||||2222....2222||||2222....||||....2222||||2222....||||22221111",
"||||2222....2222||||2222....||||....2222||||2222....||||22221111",
"||||2222....2222||||2222....||||....2222||||2222....||||22221111",
"||||22222222....||||....2222||||2222....||||....2222||||22221111",
"||||22222222....||||....2222||||2222....||||....2222||||22221111",
"||||22222222....||||....2222||||2222....||||....2222||||22221111",
"||||22222222....||||....2222||||2222....||||....2222||||22221111",
"2222222222222222222222222222222222222222222222222222222222222222",
"2222222222222222222222222222222222222222222222222222222222222222",
"2222222222222222222222222222222222222222222222222222222222222222",
"2222222222222222222222222222222222222222222222222222222222222222"};
