/* XPM */
static char * Sprite1_xpm[] = {
"64 64 28 1",
" 	c #222034",
".	c #0B0A0A",
"+	c #4A3F3F",
"@	c #5C5050",
"#	c #847E87",
"$	c #595652",
"%	c #316C36",
"&	c #9D9D9D",
"*	c #323C39",
"=	c #44891A",
"-	c #F19F30",
";	c #2A5B2E",
">	c #000000",
",	c #812E17",
"'	c #FFA42A",
")	c #9E320C",
"!	c #804518",
"~	c #4F2B0E",
"{	c #0E0837",
"]	c #FFD42A",
"^	c #F8FF49",
"/	c #FFF249",
"(	c #180D6E",
"_	c #224925",
":	c #64B227",
"<	c #BC6118",
"[	c #120A4C",
"}	c #3B7519",
"                                                                ",
"                                                                ",
"                                                                ",
"                     ....+++@@@@                                ",
"    ########$$$$$$$$$....+++@@@@    $$$$$$$$$$$$####    ########",
"    ########$$$$$$$$$....+++@@@@    $$$$$$$$$$$$####    ########",
"    #######%%%%$$$...&&&&...+++++++ $$$$$$$$$$$$####    ########",
"    #######%%%%$$$...&&&&...+++++++ $$$$$$$$$$$$####    ########",
"    $$$$$$$%%%%$  ...&&&&...+++++++*        $$$$    $$$$$$$$$$$$",
"    $$$$$$$%%%%$  ...&&&&...+++++++*        $$$$    $$$$$$$$$$$$",
"    $$$$$$$$$$$%%%===...........++++++      $====---$$$$$$$$$$$$",
"    $$$$$$$$$$$%%%===...........++++++      $====---$$$$$$$$$$$$",
"    $$$$       %%%===...........++++++######*====---    $$$$$$$$",
"    $$$$        ##%%%=======..........@@@@===----***    $$$$$$$$",
"    $$$$        ##%%%=======..........@@@@===----***    $$$$$$$$",
"    $$$$        ##%%%=======..........@@@@===----***    $$$$$$$$",
"        ########$$%%%=======..........@@@@===----###****    $$$$",
"        ########$$;;;%%%%==========...====---#######****    $$$$",
"        ########$$;;;%%%%==========...====---#######****    $$$$",
"        ########$$;;;%%%%==========...====---#######****    $$$$",
"    ####$$$$$$$$$$$$ ;;;;%%%>>>>======>>>>$$$$$$########        ",
"    ####$$$$$$$$$$$$ ;;;;%%%>>>>======>>>>$$$$$$########        ",
"    ####$$$$$$$$$$$$ ;;;;%%%>>>>======>>>>$$$$$$########        ",
"    ####$$$$$$$$$$$$ ,,,,%%%....===%%%....$$$''''#######        ",
"        $$$$$$$$    *,,,,%%%....===%%%....$$$''''$$$####********",
"        $$$$$$$$    *,,,,%%%....===%%%....$$$''''$$$####********",
"        $$$$$$$$    *,,,,%%%....===%%%....$$$''''$$$####********",
"        $$$$$$$$    *,,,,,,,,,,,,,,,,,))))$$$$$$$$$$####********",
"    ****        ****#,,,,,,,,,,,,,,,,,))))  $$$$    ********####",
"    ****        ****#,,,,,,,,,,,,,,,,,))))  $$$$    ********####",
"    ****   !!!!~~~~~~~~~~,,,))))))),,,))))  $''''   ********####",
"    ****   !!!!~~~~~~~~~~,,,))))))),,,))))  $''''   ********####",
"    #######!!!!~~~~~~~~~~,,,))))))),,,))))** ''''   ############",
"    #######!!!!~~~~~~~~~~,,,))))))),,,))))** ''''   ############",
"    #######!!!!~~~{{{{{{{~~~,,,,))))))))))''']]]]   ############",
"    #######!!!!~~~{{{{{{{~~~,,,,))))))))))''']]]]   ############",
"    $$$$###!!!!~~~{{{{{{{~~~,,,,))))))))))''']]]]***####$$$$$$$$",
"    $$$$###!!!!~~~;;;{{{{{{{~~~~,,,))),,,,^^^*******####$$$$$$$$",
"    $$$$###!!!!~~~;;;{{{{{{{~~~~,,,))),,,,^^^*******####$$$$$$$$",
"    $$$$###!!!!~~~;;;{{{{{{{~~~~,,,))),,,,^^^*******####$$$$$$$$",
"    $$$$   !!!!~~~;;;{{{{{{{....~~~,,,]]]]///]]]]***    $$$$$$$$",
"    $$$$   !!!!~~~;;;{{{{{{{....~~~,,,]]]]///]]]]***    $$$$$$$$",
"    $$$$   !!!!~~~;;;{{{{{{{....~~~,,,]]]]///]]]]***    $$$$$$$$",
"    $$$$   !!!!~~~;;;{{{{{{{....~~~,,,]]]]///]]]]***    $$$$$$$$",
"        ##########;;;;;;;;;;====(((___;;;;:::$$$####****$$$$$$$$",
"        ##########;;;;;;;;;;====(((___;;;;:::$$$####****$$$$$$$$",
"        ##########;;;;;;;;;;====(((___;;;;:::$$$####****$$$$$$$$",
"        ############${{{{{{{{{{{(((*####$$<<<$$$####****$$$$$$$$",
"    ####$$$$$$$$$$$$#{{{{{{{{{{{(((#$$$$$$<<<$$$$$$$    ****    ",
"    ####$$$$$$$$$$$$#{{{{{{{{{{{(((#$$$$$$<<<$$$$$$$    ****    ",
"    ####$$$$$$$$$$$$#{{{{{{{{{{{(((#$$$$$$<<<$$$$$$$    ****    ",
"    ####$$$$$$$$$$$$#((((***####[[[#$$$$$$<<<$$$$$$$    ****    ",
"    $$$$$$$$$$$$$$$$*((((***####[[[$$$$$$$<<<$$$$$$$    ********",
"    $$$$$$$$$$$$$$$$*((((***####[[[$$$$$$$<<<$$$$$$$    ********",
"    $$$$$$$$$$$$$$$$*::::***####}}}$$$$$$$~~~$$$$$$$    ********",
"    $$$$$$$$$$$$$$$$*::::***####}}}$$$$$$$~~~$$$$$$$    ********",
"    $$$$$$$$$$$$$$$$*::::   ****}}}$$$$$$$~~~$$$        ########",
"    $$$$$$$$$$$$$$$$*::::   ****}}}$$$$$$$$$$$$$        ########",
"    $$$$$$$$$$$$$$$$*::::   ****}}}$$$$$$$$$$$$$        ########",
"    $$$$$$$$$$$$$$$$*::::   ****}}}$$$$$$$$$$$$$        ########",
"        ****         ::::       }}}*$$$$$$$$$$$$    $$$$$$$$####",
"        ****                    ****$$$$$$$$$$$$    $$$$$$$$####",
"        ****                    ****$$$$$$$$$$$$    $$$$$$$$####",
"        ****                    ****$$$$$$$$$$$$    $$$$$$$$####"};
