/* XPM */
static char * Sprite2_xpm[] = {
"64 64 25 1",
" 	c #222034",
".	c #847E87",
"+	c #595652",
"@	c #0B0A0A",
"#	c #4A3F3F",
"$	c #5C5050",
"%	c #316C36",
"&	c #9D9D9D",
"*	c #44891A",
"=	c #323C39",
"-	c #2A5B2E",
";	c #F19F30",
">	c #FFA42A",
",	c #812E17",
"'	c #FFF72A",
")	c #9E320C",
"!	c #804518",
"~	c #4F2B0E",
"{	c #0E0837",
"]	c #FFD42A",
"^	c #64B227",
"/	c #BC6118",
"(	c #120A4C",
"_	c #180D6E",
":	c #3B7519",
"                                                                ",
"                                                                ",
"                                                                ",
"                                                                ",
"    ........++++++@@@@@@@###$$$$    ++++++++++++....    ........",
"    ........++++++@@@@@@@###$$$$    ++++++++++++....    ........",
"    ........++++++@@@@@@@###$$$$    ++++++++++++....    ........",
"    ........+++%%%&&&&&&&@@@####### ++++++***+++....    ........",
"    +++++++++++%%%&&&&&&&@@@#######=      ***+++    ++++++++++++",
"    +++++++++++%%%&&&&&&&@@@#######=      ***+++    ++++++++++++",
"    +++++++++++%%%&&&&&&&@@@#######=      ***+++    ++++++++++++",
"    +++++++++++%%%***@@@@@@@@@@@######      +----   ++++++++++++",
"    ++++       %%%***@@@@@@@@@@@######......=----===    ++++++++",
"    ++++       %%%***@@@@@@@@@@@######......=----===    ++++++++",
"    ++++        ..%%%*******@@@@@@@@@@$$$$***;;;;===    ++++++++",
"    ++++        ..%%%*******@@@@@@@@@@$$$$***;;;;===    ++++++++",
"        ........++%%%*******@@@@@@@@@@$$$$***;;;;...====    ++++",
"        ........++%%%*******@@@@@@@@@@$$$$***;;;;...====    ++++",
"        ........++---%%%%**********@@@****;;;....>>>====    ++++",
"        ........++---%%%%**********@@@****;;;....>>>====    ++++",
"    ....++++++++++---%%%%**********@@@****;;;+++.>>>....        ",
"    ....++++++++++++ ----%%%**************++++++........        ",
"    ....++++++++++++ ----%%%**************++++++........        ",
"    ....++++++++++++ ----%%%**************++++++........        ",
"        ++++++++    =----%%%**************++++++++++....========",
"        ++++++++    =,,,,%%%@@@@***%%%@@@@+++''''>>>....========",
"        ++++++++    =,,,,%%%@@@@***%%%@@@@+++''''>>>....========",
"        ++++++++    =,,,,%%%@@@@***%%%@@@@+++''''>>>....========",
"    ====        ====.,,,,,,,,,,,,,,,,,))))'''>>>>   ========....",
"    ====        ====.,,,,,,,,,,,,,,,,,))))'''>>>>   ========....",
"    ====        ====.,,,,,,,,,,,,,,,,,))))'''>>>>   ========....",
"    ====   !!!!~~~{{{~~~~,,,))))))),,,))))'''+++    ========....",
"    .......!!!!~~~{{{~~~~,,,))))))),,,))))'''       ............",
"    .......!!!!~~~{{{~~~~,,,))))))),,,))))'''       ............",
"    .......!!!!~~~{{{~~~~,,,))))))),,,))))'''       ............",
"    .......!!!!~~~---{{{{~~~,,,,))))))))))''']]]]   ............",
"    ++++...!!!!~~~---{{{{~~~,,,,))))))))))''']]]]===....++++++++",
"    ++++...!!!!~~~---{{{{~~~,,,,))))))))))''']]]]===....++++++++",
"    ++++...!!!!~~~---{{{{{{{~~~~,,,))),,,,^^^=======....++++++++",
"    ++++...!!!!~~~---{{{{{{{~~~~,,,))),,,,^^^=======....++++++++",
"    ++++   !!!!~~~---{{{{{{{~~~~,,,))),,,,^^^...====    ++++++++",
"    ++++   !!!!~~~---{{{{{{{~~~~,,,))),,,,^^^...====    ++++++++",
"    ++++   !!!!~~~----------****~~~,,,==..///...====    ++++++++",
"    ++++   !!!!~~~----------****~~~,,,==..///...====    ++++++++",
"        ...!!!!~~~----------****~~~,,,..++///+++....====++++++++",
"        ............+{{{{{{{{{{{(((=....++///+++....====++++++++",
"        ............+{{{{{{{{{{{(((=....++///+++....====++++++++",
"        ............+{{{{{{{{{{{(((=....++///+++....====++++++++",
"    ....++++++++++++.{{{{{{{{{{{(((.++++++///+++++++    ====    ",
"    ....++++++++++++.____{{{{{{{(((.++++++~~~+++++++    ====    ",
"    ....++++++++++++.____{{{{{{{(((.++++++~~~+++++++    ====    ",
"    ....++++++++++++.____{{{{{{{(((.++++++~~~+++++++    ====    ",
"    ++++++++++++++++=____===....(((+++++++++++++++++    ========",
"    ++++++++++++++++=____===....(((+++++++++++++++++    ========",
"    ++++++++++++++++=____===....(((+++++++++++++++++    ========",
"    ++++++++++++++++=^^^^===....:::+++++++++++++++++    ========",
"    ++++++++++++++++=^^^^   ====:::+++++++++++++        ........",
"    ++++++++++++++++=^^^^   ====:::+++++++++++++        ........",
"    ++++++++++++++++=^^^^   ====:::+++++++++++++        ........",
"    ++++++++++++++++====    ====++++++++++++++++        ........",
"        ====                    ====++++++++++++    ++++++++....",
"        ====                    ====++++++++++++    ++++++++....",
"        ====                    ====++++++++++++    ++++++++....",
"        ====                    ====++++++++++++    ++++++++...."};
