/* XPM */
static char * Sprite3_xpm[] = {
"64 64 24 1",
" 	c #222034",
".	c #4A3F3F",
"+	c #5C5050",
"@	c #847E87",
"#	c #595652",
"$	c #0B0A0A",
"%	c #323C39",
"&	c #316C36",
"*	c #44891A",
"=	c #F19F30",
"-	c #2A5B2E",
";	c #FFA42A",
">	c #812E17",
",	c #9E320C",
"'	c #804518",
")	c #4F2B0E",
"!	c #FFFF2A",
"~	c #0E0837",
"{	c #180D6E",
"]	c #224925",
"^	c #64B227",
"/	c #BC6118",
"(	c #120A4C",
"_	c #3B7519",
"                                                                ",
"                                                                ",
"                                                                ",
"                         ....+++                                ",
"    @@@@@@@@#############....+++    ############@@@@    @@@@@@@@",
"    @@@@@@@@#############....+++    ############@@@@    @@@@@@@@",
"    @@@@@@@@######$$$$$$$$$$$...... ############@@@@    @@@@@@@@",
"    @@@@@@@@######$$$$$$$$$$$...... ############@@@@    @@@@@@@@",
"    ############  $$$$$$$$$$$......%        ####    ############",
"    ############  $$$$$$$$$$$......%        ####    ############",
"    ###########&&&****$$$$$$$$$$.......     ####    ############",
"    ###########&&&****$$$$$$$$$$.......     ####    ############",
"    ####       &&&****$$$$$$$$$$.......@@@@@%%%%%%%%    ########",
"    ####    &&& @@&&&&*******$$$$$$$$$$+++****======    ########",
"    ####    &&& @@&&&&*******$$$$$$$$$$+++****======    ########",
"    ####    &&& @@&&&&*******$$$$$$$$$$+++****======    ########",
"        @@@@&&&@##&&&&*******$$$$$$$$$$+++****======%%%%    ####",
"        @@@@@@@@##----&&&**********$$$$***====@@@;;;%%%%    ####",
"        @@@@@@@@##----&&&**********$$$$***====@@@;;;%%%%    ####",
"        @@@@@@@@##----&&&**********$$$$***====@@@;;;%%%%    ####",
"    @@@@############  ---&&&&$$$*******$$$######@@@@@@@@        ",
"    @@@@############  ---&&&&$$$*******$$$######@@@@@@@@        ",
"    @@@@############  ---&&&&$$$*******$$$######@@@@@@@@        ",
"    @@@@############  >>>&&&&$$$***&&&&$$$######@@@@@@@@        ",
"        ########    %%>>>&&&&$$$***&&&&$$$##########@@@@%%%%%%%%",
"        ########    %%>>>&&&&$$$***&&&&$$$##########@@@@%%%%%%%%",
"        ########    %%>>>&&&&$$$***&&&&$$$##########@@@@%%%%%%%%",
"        ########    %%>>>>>>>>>>>>>>>>>,,,####;;;###@@@@%%%%%%%%",
"    %%%%        %%%%@@>>>>>>>>>>>>>>>>>,,,  ##;;;   %%%%%%%%@@@@",
"    %%%%        %%%%@@>>>>>>>>>>>>>>>>>,,,  ##;;;   %%%%%%%%@@@@",
"    %%%%    '''))))))))))>>>>,,,,,,>>>>,,,!!!!##    %%%%%%%%@@@@",
"    %%%%    '''))))))))))>>>>,,,,,,>>>>,,,!!!!##    %%%%%%%%@@@@",
"    @@@@@@@@'''))))))))))>>>>,,,,,,>>>>,,,!!!!      @@@@@@@@@@@@",
"    @@@@@@@@'''))))))))))>>>>,,,,,,>>>>,,,!!!!      @@@@@@@@@@@@",
"    @@@@@@@@''')))~~~~~~~))))>>>,,,,,,,,,,%%        @@@@@@@@@@@@",
"    @@@@@@@@''')))~~~~~~~))))>>>,,,,,,,,,,%%        @@@@@@@@@@@@",
"    ####@@@@''')))~~~~~~~))))>>>,,,,,,,,,,  %%%%%%%%@@@@########",
"    ####@@@@''')))----~~~~~~~)))>>>,,,,>>>!!!!;;;%%%@@@@########",
"    ####@@@@''')))----~~~~~~~)))>>>,,,,>>>!!!!;;;%%%@@@@########",
"    ####@@@@''')))----~~~~~~~)))>>>,,,,>>>!!!!;;;%%%@@@@########",
"    ####    ''')))----~~~~~~~)))>>>,,,,>>>!!!!;;;%%%    ########",
"    ####    ''')))----~~~~~~~$$$)))>>>>;;;!!!!@@%%%%    ########",
"    ####    ''')))----~~~~~~~$$$)))>>>>;;;!!!!@@%%%%    ########",
"    ####    ''')))----~~~~~~~$$$)))>>>>;;;!!!!@@%%%%    ########",
"        @@@@@@@@@@-----------***{{{]]]]---^^^^##@@@@%%%%########",
"        @@@@@@@@@@-----------***{{{]]]]---^^^^##@@@@%%%%########",
"        @@@@@@@@@@-----------***{{{]]]]---^^^^##@@@@%%%%########",
"        @@@@@@@@@@@@##~~~~~~~~~~{{{%@@@@##////##@@@@%%%%########",
"    @@@@############@@~~~~~~~~~~{{{@######////######    %%%%    ",
"    @@@@############@@~~~~~~~~~~{{{@######////######    %%%%    ",
"    @@@@############@@~~~~~~~~~~{{{@######////######    %%%%    ",
"    @@@@############@@{{{%%%@@@@(((@######////######    %%%%    ",
"    ################%%{{{%%%@@@@(((#######////######    %%%%%%%%",
"    ################%%{{{%%%@@@@(((#######////######    %%%%%%%%",
"    ################%%^^^%%%@@@@___#######))))######    %%%%%%%%",
"    ################%%^^^%%%@@@@___#######))))######    %%%%%%%%",
"    ################%%^^^   %%%%___#######))))##        @@@@@@@@",
"    ################%%^^^   %%%%___#######))))##        @@@@@@@@",
"    ################%%^^^   %%%%___#############        @@@@@@@@",
"    ################%%^^^   %%%%___#############        @@@@@@@@",
"        %%%%          ^^^       ___%############    ########@@@@",
"        %%%%                    %%%%############    ########@@@@",
"        %%%%                    %%%%############    ########@@@@",
"        %%%%                    %%%%############    ########@@@@"};
