/* XPM */
static char * E1_xpm[] = {
"64 64 8 1",
" 	c #222034",
".	c #847E87",
"+	c #595652",
"@	c #10141F",
"#	c #AFAFAF",
"$	c #D3D3D3",
"%	c #EBEDE9",
"&	c #323C39",
"                                                                ",
"                                                                ",
"                                                                ",
"                                                                ",
"    ........++++++++++++@@@@@@@@@@@@@@@@++++++++....    ........",
"    ........++++++++++++@@@@@@@@@@@@@@@@++++++++....    ........",
"    ........+++++++@@@@@################@@@@@+++....    ........",
"    ........+++++++@@@@@################@@@@@+++....    ........",
"    ++++++++++++   @@@@@################@@@@@+++    ++++++++++++",
"    ++++++++++++ @@#####$$$%%%%%%%%%%$$$#####@@+    ++++++++++++",
"    ++++++++++++ @@#####$$$%%%%%%%%%%$$$#####@@+    ++++++++++++",
"    ++++++++++++ @@#####$$$%%%%%%%%%%$$$#####@@+    ++++++++++++",
"    ++++      @@@##$$$%%%%%%%%%%%%%%%%%%%%$$$##@@@&&    ++++++++",
"    ++++      @@@##$$$%%%%%%%%%%%%%%%%%%%%$$$##@@@&&    ++++++++",
"    ++++      @@@##%%%%%%%%%%%%%%%%%%%%%%%%%%##@@@&&    ++++++++",
"    ++++      @@@##%%%%%%%%%%%%%%%%%%%%%%%%%%##@@@&&    ++++++++",
"        ......@@@##%%%%%%%%%%%%%%%%%%%%%%%%%%##@@@..&&&&    ++++",
"        ......@@@##%%%%%%%%%%%%%%%%%%%%%%%%%%##@@@..&&&&    ++++",
"        ......@@@##%%%%%%%%%%%%%%%%%%%%%%%%%%##@@@..&&&&    ++++",
"        ......@@@#####$$%%%%%%%%%%%%%%%%$$#####@@@..&&&&    ++++",
"    ....++++++@@@#####$$%%%%%%%%%%%%%%%%$$#####@@@......        ",
"    ....++++++@@@#####$$%%%%%%%%%%%%%%%%$$#####@@@......        ",
"    ....++++++@@@$$%%%@@%%%%%%%%%%%%%%%%@@%%%$$@@@......        ",
"    ....++++++@@@$$%%%@@%%%%%%%%%%%%%%%%@@%%%$$@@@......        ",
"        ++++++@@@%%%%%@@@@@%%%%%%%%%%@@@@@%%%%%@@@++....&&&&&&&&",
"        ++++++@@@%%%%%@@@@@%%%%%%%%%%@@@@@%%%%%@@@++....&&&&&&&&",
"        ++++++@@@%%%%%@@@@@%%%%%%%%%%@@@@@%%%%%@@@++....&&&&&&&&",
"        ++++++@@@$$%%%@@@@@%%%%%%%%%%@@@@@%%%$$@@@++....&&&&&&&&",
"    &&&&      @@@$$%%%@@@@@%%%%%%%%%%@@@@@%%%$$@@@  &&&&&&&&....",
"    &&&&        &@@$$$$$%%%%%%%%%%%%%%%%$$$$$@@+    &&&&&&&&....",
"    &&&&        &@@$$$$$%%%%%%%%%%%%%%%%$$$$$@@+    &&&&&&&&....",
"    &&&&        &@@$$$$$%%%%%%%%%%%%%%%%$$$$$@@+    &&&&&&&&....",
"    ........&&&&...@@@$$$$$$$$$$$$$$$$$$$$@@@       ............",
"    ........&&&&...@@@$$$$$$$$$$$$$$$$$$$$@@@       ............",
"    ........&&&&...@@@$$$$$$$$$$$$$$$$$$$$@@@       ............",
"    ........&&&&.@@@@@@@@@@@@@@@@@@@@@@@@@@@@@@     ............",
"    ++++....    +@@@@@@@@@@@@@@@@@@@@@@@@@@@@@@&&&&&....++++++++",
"    ++++....  @@@#####$$%%%@@######@@%%%$$#####@@@&&....++++++++",
"    ++++....  @@@#####$$%%%@@######@@%%%$$#####@@@&&....++++++++",
"    ++++....  @@@#####$$%%%@@######@@%%%$$#####@@@&&....++++++++",
"    ++++    @@###$$%%%@@@@@@@%%%%%%@@@@@@@%%%$$###@@    ++++++++",
"    ++++    @@###$$%%%@@@@@@@%%%%%%@@@@@@@%%%$$###@@    ++++++++",
"    ++++ @@@$$%%%%%%%%$$#####%%%%%%#####$$%%%%%%%%$$@@@ ++++++++",
"    ++++ @@@$$%%%%%%%%$$#####%%%%%%#####$$%%%%%%%%$$@@@ ++++++++",
"        .@@@$$%%%%%%%%$$#####%%%%%%#####$$%%%%%%%%$$@@@&++++++++",
"        .@@@%%%%%@@%%%@@@@@@@%%%%%%@@@@@@@%%%@@%%%%%@@@&++++++++",
"        .@@@%%%%%@@%%%@@@@@@@%%%%%%@@@@@@@%%%@@%%%%%@@@&++++++++",
"        ....@@@@@@@%%%$$#####%%%%%%#####$$%%%@@@@@@@&&&&++++++++",
"    ....++++@@@@@@@%%%$$#####%%%%%%#####$$%%%@@@@@@@    &&&&    ",
"    ....++++@@@@@@@%%%$$#####%%%%%%#####$$%%%@@@@@@@    &&&&    ",
"    ....+++++++++@@@@@@@@@@@@@@@@@@@@@@@@@@@@@@+++++    &&&&    ",
"    ....+++++++++@@@@@@@@@@@@@@@@@@@@@@@@@@@@@@+++++    &&&&    ",
"    +++++++++++++++@@@%%%%%$$@@@@@@$$%%%%%@@@+++++++    &&&&&&&&",
"    +++++++++++++++@@@%%%%%$$@@@@@@$$%%%%%@@@+++++++    &&&&&&&&",
"    +++++++++++++++@@@%%%%%$$@@@@@@$$%%%%%@@@+++++++    &&&&&&&&",
"    +++++++++++++@@%%%$$$$$##@@@@@@##$$$$$%%%@@+++++    &&&&&&&&",
"    +++++++++++++@@%%%$$$$$##@@@@@@##$$$$$%%%@@+        ........",
"    +++++++++++++@@%%%$$$$$##@@@@@@##$$$$$%%%@@+        ........",
"    +++++++++++++++@@@@@@@@@@@@@@@@@@@@@@@@@@+++        ........",
"    +++++++++++++++@@@@@@@@@@@@@@@@@@@@@@@@@@+++        ........",
"        &&&&                    &&&&++++++++++++    ++++++++....",
"        &&&&                    &&&&++++++++++++    ++++++++....",
"        &&&&                    &&&&++++++++++++    ++++++++....",
"        &&&&                    &&&&++++++++++++    ++++++++...."};
